#!OML:ASF F:\VICON\USERDATA\INSTALL\rory3\rory3.ASF
:FULLY-SPECIFIED
:DEGREES
3061
root -5.02797 17.7436 -14.0624 19.5314 39.3444 9.78118
lowerback 13.5517 3.39166 1.40213
upperback 7.00805 5.02768 8.4709
thorax -0.830697 2.51538 7.4489
lowerneck -8.95313 -11.9664 -7.40445
upperneck 33.9581 -16.9653 5.94601
head 14.3429 -7.19814 1.11807
rclavicle -2.8625e-014 -1.90833e-014
rhumerus 13.6974 -7.69227 -97.1973
rradius 35.6371
rwrist -16.9728
rhand -12.8513 -16.622
rfingers 7.12502
rthumb 13.2366 -46.1817
lclavicle -2.8625e-014 -1.90833e-014
lhumerus -18.162 -26.6443 87.7878
lradius 69.9948
lwrist 68.5412
lhand -17.6171 55.329
lfingers 7.12502
lthumb 8.63981 -1354.87
rfemur -23.7005 -5.63288 3.33602
rtibia 43.2456
rfoot -22.464 -3.04684
rtoes -5.69314
lfemur -30.422 5.87801 -30.1053
ltibia 23.5188
lfoot -3.52596 -6.49725
ltoes -11.1497
3062
root -4.99562 17.7434 -14.066 19.4529 39.4362 9.63305
lowerback 13.4198 3.34919 1.27322
upperback 7.03661 4.94828 8.46985
thorax -0.730135 2.47217 7.54295
lowerneck -8.90891 -11.9609 -7.42273
upperneck 33.9614 -16.9849 6.03212
head 14.3495 -7.20072 1.15354
rclavicle -1.11319e-014 6.67916e-014
rhumerus 13.6721 -8.27904 -96.7039
rradius 35.3447
rwrist -17.4564
rhand -13.1857 -17.6714
rfingers 7.12502
rthumb 12.9142 -47.2518
lclavicle -1.11319e-014 6.67916e-014
lhumerus -17.7796 -27.2166 88.0253
lradius 69.798
lwrist 68.5427
lhand -17.733 55.0692
lfingers 7.12502
lthumb 8.52801 -1355.12
rfemur -24.2137 -5.76828 4.06823
rtibia 44.1047
rfoot -22.8798 -3.37574
rtoes -5.61211
lfemur -30.4426 5.86221 -30.0727
ltibia 23.649
lfoot -3.63896 -6.50862
ltoes -11.1042
3063
root -4.96581 17.7404 -14.0725 19.3702 39.5248 9.43491
lowerback 13.2579 3.20355 1.11472
upperback 7.0588 4.73011 8.48908
thorax -0.605837 2.35841 7.69933
lowerneck -8.82448 -11.8033 -7.3529
upperneck 33.9471 -16.7351 5.91398
head 14.2782 -7.1089 1.14651
rclavicle -3.49861e-014 -2.8625e-014
rhumerus 13.8045 -8.40818 -96.0832
rradius 34.5394
rwrist -18.1484
rhand -13.7671 -18.7927
rfingers 7.12502
rthumb 12.3536 -48.4077
lclavicle -3.49861e-014 -2.8625e-014
lhumerus -17.5527 -27.5002 88.2921
lradius 69.748
lwrist 68.5284
lhand -17.9595 55.1116
lfingers 7.12502
lthumb 8.30944 -1355.07
rfemur -24.7889 -5.86569 4.86597
rtibia 44.9226
rfoot -23.3264 -3.79153
rtoes -5.51205
lfemur -30.5266 5.80058 -29.9906
ltibia 23.8103
lfoot -3.72256 -6.46598
ltoes -10.8607
3064
root -4.93665 17.7399 -14.0846 19.4181 39.5987 9.4148
lowerback 12.9945 3.01987 0.850237
upperback 7.18488 4.43925 8.50546
thorax -0.312605 2.20226 7.93363
lowerneck -8.98272 -11.6442 -7.48982
upperneck 33.9594 -16.4838 5.92931
head 14.3124 -7.01644 1.20544
rclavicle 2.70347e-014 9.85972e-014
rhumerus 13.6114 -9.6472 -96.1061
rradius 34.986
rwrist -17.5317
rhand -13.9855 -19.2173
rfingers 7.12502
rthumb 12.1431 -48.8449
lclavicle 2.70347e-014 9.85972e-014
lhumerus -17.1901 -27.6658 88.6278
lradius 69.7864
lwrist 68.4751
lhand -18.2252 55.4198
lfingers 7.12502
lthumb 8.05303 -1354.75
rfemur -25.3944 -6.19414 5.5359
rtibia 45.7275
rfoot -23.7869 -4.05477
rtoes -5.74946
lfemur -30.6596 5.7441 -30.0791
ltibia 24.0253
lfoot -3.8609 -6.44658
ltoes -10.5964
3065
root -4.90742 17.74 -14.0945 19.4248 39.7365 9.35517
lowerback 12.842 2.90658 0.72825
upperback 7.21567 4.26547 8.45179
thorax -0.179025 2.11051 7.97983
lowerneck -8.99528 -11.5878 -7.431
upperneck 33.9719 -16.4205 5.93684
head 14.3093 -6.98356 1.20934
rclavicle 3.97569e-014 -3.18055e-015
rhumerus 13.3169 -10.8537 -95.8117
rradius 35.2812
rwrist -17.4872
rhand -14.7723 -18.6465
rfingers 7.12502
rthumb 11.3844 -48.3174
lclavicle 3.97569e-014 -3.18055e-015
lhumerus -16.8974 -28.248 89.0873
lradius 69.7529
lwrist 68.1915
lhand -17.9757 55.3457
lfingers 7.12502
lthumb 8.29381 -1354.84
rfemur -25.9429 -6.54214 6.27318
rtibia 46.4818
rfoot -24.3918 -4.33188
rtoes -6.07733
lfemur -30.7563 5.59069 -30.0816
ltibia 24.2464
lfoot -4.02434 -6.4422
ltoes -10.4366
3066
root -4.87412 17.7321 -14.1105 19.3648 39.767 9.20371
lowerback 12.9301 2.79287 0.760497
upperback 7.03347 4.12851 8.3464
thorax -0.392181 2.04747 7.85436
lowerneck -8.62875 -11.4882 -7.34772
upperneck 34.0082 -16.2736 5.84185
head 14.2112 -6.93517 1.20925
rclavicle -9.38264e-014 4.13472e-014
rhumerus 12.683 -11.8598 -95.2646
rradius 35.2878
rwrist -17.8828
rhand -15.6536 -18.1688
rfingers 7.12502
rthumb 10.5344 -47.8848
lclavicle -9.38264e-014 4.13472e-014
lhumerus -17.1535 -28.9772 89.809
lradius 69.8448
lwrist 68.0986
lhand -17.7955 54.6323
lfingers 7.12502
lthumb 8.46765 -1355.56
rfemur -26.5599 -6.87214 7.01816
rtibia 47.1653
rfoot -25.0256 -4.69819
rtoes -7.60107
lfemur -30.8769 5.3271 -30.0154
ltibia 24.478
lfoot -4.14274 -6.17411
ltoes -10.3503
3067
root -4.84459 17.7262 -14.1221 19.4058 39.7772 9.10305
lowerback 12.8985 2.67372 0.690166
upperback 6.96046 3.9597 8.21547
thorax -0.426197 1.96258 7.77508
lowerneck -8.66104 -11.3912 -7.28669
upperneck 34.0773 -16.1702 5.88363
head 14.2386 -6.87877 1.23124
rclavicle -2.54444e-014 2.8625e-014
rhumerus 12.3427 -12.7509 -94.6866
rradius 35.0255
rwrist -18.1247
rhand -16.2194 -17.8879
rfingers 7.12502
rthumb 9.9885 -47.6309
lclavicle -2.54444e-014 2.8625e-014
lhumerus -17.1017 -29.8269 90.3332
lradius 70.102
lwrist 68.3993
lhand -17.1781 54.238
lfingers 7.12502
lthumb 9.06352 -1355.98
rfemur -27.2603 -7.23917 7.78632
rtibia 47.7527
rfoot -25.4257 -5.12458
rtoes -9.37622
lfemur -31.0936 5.32127 -30.0637
ltibia 24.716
lfoot -4.26352 -6.20427
ltoes -10.6006
